<svg width="512" height="512" viewBox="0 0 512 512" fill="none" xmlns="http://www.w3.org/2000/svg">
<path d="M71.5282 190.942C85.4266 131.691 131.691 85.4266 190.943 71.5279C233.734 61.4906 278.266 61.4906 321.058 71.5279C380.309 85.4266 426.573 131.691 440.471 190.942C450.509 233.734 450.509 278.266 440.471 321.058C426.573 380.309 380.309 426.573 321.058 440.471C278.266 450.509 233.734 450.509 190.943 440.471C131.691 426.573 85.4266 380.309 71.5282 321.058C61.4906 278.266 61.4906 233.734 71.5282 190.942Z" stroke="#0095FF" stroke-width="50"/>
<path d="M71.5282 190.943C61.4906 233.734 61.4906 278.266 71.5282 321.058C85.4266 380.309 131.691 426.573 190.943 440.471C233.734 450.509 278.266 450.509 321.058 440.471C380.309 426.573 426.573 380.309 440.471 321.058C450.509 278.266 450.509 233.734 440.471 190.943C426.573 131.691 380.309 85.4266 321.058 71.5279" stroke="#363853" stroke-width="50" stroke-linecap="round"/>
<path d="M167.448 189.207C161.199 182.959 151.069 182.959 144.82 189.207C138.572 195.455 138.572 205.586 144.82 211.834L167.448 189.207ZM178.327 222.714L167.013 234.027C170.013 237.028 174.083 238.714 178.327 238.714C182.57 238.714 186.64 237.028 189.64 234.027L178.327 222.714ZM234.024 189.642C240.273 183.393 240.273 173.263 234.024 167.014C227.776 160.766 217.647 160.766 211.398 167.014L234.024 189.642ZM278.193 195.617C269.357 195.617 262.193 202.78 262.193 211.617C262.193 220.454 269.357 227.616 278.193 227.616V195.617ZM355.866 227.616C364.704 227.616 371.866 220.454 371.866 211.617C371.866 202.78 364.704 195.617 355.866 195.617V227.616ZM167.448 300.169C161.199 293.92 151.069 293.92 144.82 300.169C138.572 306.417 138.572 316.548 144.82 322.797L167.448 300.169ZM178.327 333.675L167.013 344.99C173.261 351.238 183.392 351.238 189.64 344.99L178.327 333.675ZM234.024 300.604C240.273 294.355 240.273 284.226 234.024 277.978C227.776 271.729 217.647 271.729 211.398 277.978L234.024 300.604ZM278.193 306.579C269.357 306.579 262.193 313.743 262.193 322.579C262.193 331.415 269.357 338.579 278.193 338.579V306.579ZM355.866 338.579C364.704 338.579 371.866 331.415 371.866 322.579C371.866 313.743 364.704 306.579 355.866 306.579V338.579ZM144.82 211.834L167.013 234.027L189.64 211.399L167.448 189.207L144.82 211.834ZM189.64 234.027L234.024 189.642L211.398 167.014L167.013 211.399L189.64 234.027ZM278.193 227.616H355.866V195.617H278.193V227.616ZM144.82 322.797L167.013 344.99L189.64 322.362L167.448 300.169L144.82 322.797ZM189.64 344.99L234.024 300.604L211.398 277.978L167.013 322.362L189.64 344.99ZM278.193 338.579H355.866V306.579H278.193V338.579Z" fill="#0095FF"/>
</svg>
