<svg width="192" height="194" viewBox="0 0 192 194" fill="none" xmlns="http://www.w3.org/2000/svg">
<path d="M26.8231 72.3492C32.035 49.8984 49.3841 32.3686 71.6034 27.1023C87.6504 23.2991 104.35 23.2991 120.397 27.1023C142.616 32.3686 159.965 49.8984 165.177 72.3492C168.941 88.5633 168.941 105.436 165.177 121.651C159.965 144.101 142.616 161.631 120.397 166.897C104.35 170.7 87.6504 170.7 71.6035 166.897C49.3841 161.631 32.035 144.101 26.8231 121.651C23.059 105.436 23.059 88.5633 26.8231 72.3492Z" stroke="#0095FF" stroke-width="30"/>
<path d="M26.8231 72.3492C23.059 88.5633 23.059 105.436 26.8231 121.651C32.035 144.101 49.3841 161.631 71.6035 166.897C87.6504 170.7 104.35 170.7 120.397 166.897C142.616 161.631 159.965 144.101 165.177 121.651C168.941 105.436 168.941 88.5633 165.177 72.3492C159.965 49.8984 142.616 32.3686 120.397 27.1023" stroke="#363853" stroke-width="30" stroke-linecap="round"/>
<path d="M62.793 71.6916C60.4498 69.3241 56.6508 69.3241 54.3077 71.6916C51.9645 74.0592 51.9645 77.8977 54.3077 80.2652L62.793 71.6916ZM66.8725 84.3875L62.6299 88.6741C63.7551 89.8114 65.2812 90.45 66.8725 90.45C68.4638 90.45 69.99 89.8114 71.1152 88.6741L66.8725 84.3875ZM87.7593 71.8564C90.1025 69.4889 90.1025 65.6503 87.7593 63.2827C85.4161 60.9152 81.6176 60.9152 79.2743 63.2827L87.7593 71.8564ZM104.322 74.1204C101.009 74.1204 98.3225 76.8347 98.3225 80.1829C98.3225 83.5315 101.009 86.2451 104.322 86.2451V74.1204ZM133.45 86.2451C136.764 86.2451 139.45 83.5315 139.45 80.1829C139.45 76.8347 136.764 74.1204 133.45 74.1204V86.2451ZM62.793 113.736C60.4498 111.368 56.6508 111.368 54.3077 113.736C51.9645 116.103 51.9645 119.942 54.3077 122.31L62.793 113.736ZM66.8725 126.431L62.6299 130.719C64.973 133.086 68.772 133.086 71.1152 130.719L66.8725 126.431ZM87.7593 113.901C90.1025 111.533 90.1025 107.695 87.7593 105.327C85.4161 102.96 81.6176 102.96 79.2743 105.327L87.7593 113.901ZM104.322 116.165C101.009 116.165 98.3225 118.879 98.3225 122.227C98.3225 125.575 101.009 128.29 104.322 128.29V116.165ZM133.45 128.29C136.764 128.29 139.45 125.575 139.45 122.227C139.45 118.879 136.764 116.165 133.45 116.165V128.29ZM54.3077 80.2652L62.6299 88.6741L71.1152 80.1005L62.793 71.6916L54.3077 80.2652ZM71.1152 88.6741L87.7593 71.8564L79.2743 63.2827L62.6299 80.1005L71.1152 88.6741ZM104.322 86.2451H133.45V74.1204H104.322V86.2451ZM54.3077 122.31L62.6299 130.719L71.1152 122.145L62.793 113.736L54.3077 122.31ZM71.1152 130.719L87.7593 113.901L79.2743 105.327L62.6299 122.145L71.1152 130.719ZM104.322 128.29H133.45V116.165H104.322V128.29Z" fill="#0095FF"/>
</svg>
